<svg xmlns="http://www.w3.org/2000/svg" viewBox="0 0 820 250" font-family="-apple-system,BlinkMacSystemFont,Segoe UI,Helvetica,Arial,sans-serif">
  <defs>
    <linearGradient id="gStartDcon" x1="0" y1="0" x2="1" y2="0">
      <stop offset="0" stop-color="#2ea043"/><stop offset="1" stop-color="#3fb950"/>
    </linearGradient>
    <linearGradient id="gStartOrb" x1="0" y1="0" x2="1" y2="0">
      <stop offset="0" stop-color="#1f6feb"/><stop offset="1" stop-color="#58a6ff"/>
    </linearGradient>
  </defs>

  <rect x="1" y="1" width="818" height="248" rx="16" fill="#0d1117" stroke="#21262d"/>

  <text x="36" y="50" fill="#e6edf3" font-size="24" font-weight="700">Cold container start</text>
  <text x="36" y="74" fill="#7d8590" font-size="13">`run --rm alpine echo` (warm image) — a shared VM starts faster; dcon trades that for stronger isolation</text>

  <!-- gridlines 200/400/600/800 ms -->
  <g stroke="#21262d" stroke-dasharray="3 4">
    <line x1="367.5" y1="96" x2="367.5" y2="206"/>
    <line x1="485" y1="96" x2="485" y2="206"/>
    <line x1="602.5" y1="96" x2="602.5" y2="206"/>
    <line x1="720" y1="96" x2="720" y2="206"/>
  </g>
  <g fill="#484f58" font-size="10" text-anchor="middle">
    <text x="250" y="222">0</text><text x="367.5" y="222">200</text>
    <text x="485" y="222">400</text><text x="602.5" y="222">600</text>
    <text x="720" y="222">800 ms</text>
  </g>

  <!-- dcon: 741 ms (per-container microVM) -->
  <text x="232" y="132" text-anchor="end" fill="#e6edf3" font-size="15" font-weight="600">dcon</text>
  <text x="232" y="148" text-anchor="end" fill="#7d8590" font-size="11">per-container VM</text>
  <rect x="250" y="118" width="435" height="40" rx="8" fill="url(#gStartDcon)"/>
  <text x="266" y="143" fill="#ffffff" font-size="12" font-weight="600" opacity="0.92">isolated microVM per container</text>
  <text x="699" y="143" fill="#3fb950" font-size="16" font-weight="700">741 ms</text>

  <!-- OrbStack: 207 ms (shared VM) -->
  <text x="232" y="184" text-anchor="end" fill="#e6edf3" font-size="15" font-weight="600">OrbStack</text>
  <text x="232" y="200" text-anchor="end" fill="#7d8590" font-size="11">shared VM</text>
  <rect x="250" y="170" width="122" height="40" rx="8" fill="url(#gStartOrb)"/>
  <text x="386" y="195" fill="#58a6ff" font-size="16" font-weight="700">207 ms</text>
</svg>
