<svg xmlns="http://www.w3.org/2000/svg" viewBox="0 0 820 300" font-family="-apple-system,BlinkMacSystemFont,Segoe UI,Helvetica,Arial,sans-serif">
  <defs>
    <linearGradient id="gWarm" x1="0" y1="0" x2="1" y2="0">
      <stop offset="0" stop-color="#2ea043"/><stop offset="1" stop-color="#56d364"/>
    </linearGradient>
    <linearGradient id="gOrb" x1="0" y1="0" x2="1" y2="0">
      <stop offset="0" stop-color="#1f6feb"/><stop offset="1" stop-color="#58a6ff"/>
    </linearGradient>
    <linearGradient id="gCold" x1="0" y1="0" x2="1" y2="0">
      <stop offset="0" stop-color="#238636" stop-opacity="0.55"/><stop offset="1" stop-color="#3fb950" stop-opacity="0.55"/>
    </linearGradient>
    <filter id="glow" x="-20%" y="-40%" width="140%" height="180%">
      <feDropShadow dx="0" dy="0" stdDeviation="4" flood-color="#56d364" flood-opacity="0.5"/>
    </filter>
  </defs>

  <rect x="1" y="1" width="818" height="298" rx="16" fill="#0d1117" stroke="#21262d"/>

  <text x="36" y="48" fill="#e6edf3" font-size="24" font-weight="700">Container start — cold vs warm pool</text>
  <text x="36" y="72" fill="#7d8590" font-size="13">`run --rm alpine echo` · dcon's warm pool pre-boots a single-use microVM, so it starts <tspan fill="#56d364" font-weight="600">under a shared-VM engine</tspan> — yet every</text>
  <text x="36" y="90" fill="#7d8590" font-size="13">container still gets its own fresh VM. Isolation preserved; the boot cost just moves off the critical path.</text>

  <!-- gridlines 200/400/600/800 ms (0ms at x=250, 0.5875 px/ms) -->
  <g stroke="#21262d" stroke-dasharray="3 4">
    <line x1="367.5" y1="108" x2="367.5" y2="250"/>
    <line x1="485" y1="108" x2="485" y2="250"/>
    <line x1="602.5" y1="108" x2="602.5" y2="250"/>
    <line x1="720" y1="108" x2="720" y2="250"/>
  </g>
  <g fill="#484f58" font-size="10" text-anchor="middle">
    <text x="250" y="268">0</text><text x="367.5" y="268">200</text>
    <text x="485" y="268">400</text><text x="602.5" y="268">600</text>
    <text x="720" y="268">800 ms</text>
  </g>

  <!-- dcon warm pool: 90 ms (WINNER) -->
  <text x="232" y="128" text-anchor="end" fill="#e6edf3" font-size="15" font-weight="700">dcon · warm</text>
  <text x="232" y="144" text-anchor="end" fill="#56d364" font-size="11">pre-booted microVM</text>
  <rect x="250" y="114" width="53" height="36" rx="8" fill="url(#gWarm)" filter="url(#glow)"/>
  <text x="315" y="138" fill="#56d364" font-size="16" font-weight="700">90 ms</text>
  <text x="392" y="138" fill="#3fb950" font-size="11" font-weight="600">↞ fastest, still per-container isolation</text>

  <!-- OrbStack: 212 ms (shared VM) -->
  <text x="232" y="178" text-anchor="end" fill="#e6edf3" font-size="15" font-weight="600">OrbStack</text>
  <text x="232" y="194" text-anchor="end" fill="#7d8590" font-size="11">shared VM</text>
  <rect x="250" y="164" width="125" height="36" rx="8" fill="url(#gOrb)"/>
  <text x="389" y="188" fill="#58a6ff" font-size="16" font-weight="700">212 ms</text>

  <!-- dcon cold: 769 ms (fresh boot, max isolation / min memory) -->
  <text x="232" y="228" text-anchor="end" fill="#e6edf3" font-size="15" font-weight="600">dcon · cold</text>
  <text x="232" y="244" text-anchor="end" fill="#7d8590" font-size="11">fresh microVM boot</text>
  <rect x="250" y="214" width="452" height="36" rx="8" fill="url(#gCold)"/>
  <text x="688" y="238" text-anchor="end" fill="#e6edf3" font-size="14" font-weight="700" opacity="0.9">769 ms</text>
</svg>
